# xmcd
#
# Track frame offsets:
#	150
#	19703
#	39256
#	58603
#	70765
#	81791
#	93134
#
# Disc length: 1512 seconds
#
# Revision: 0
# Processed by: cddbd v1.4PL0 Copyright (c) Steve Scherf et al.
# Submitted via: dBpowerAMP V4.0
#
DISCID=4805e607
DTITLE=Country - Schulsylvetser
DYEAR=2003
DGENRE=Country
TTITLE0=nr1
TTITLE1=2
TTITLE2=3
TTITLE3=4
TTITLE4=5
TTITLE5=6
TTITLE6=7
EXTD=Schulsylvester of the house\n
EXTT0=
EXTT1=
EXTT2=
EXTT3=
EXTT4=
EXTT5=
EXTT6=
PLAYORDER=
